#N canvas 0 22 640 382 10;
#X obj 361 44 inlet;
#X obj 310 332 outlet;
#X obj 262 169 / 7;
#X obj 395 137 % 7;
#X floatatom 360 69 5 0 0 0 - - -;
#X obj 262 199 i;
#X msg 297 198 0;
#X msg 337 199 2;
#X msg 371 200 3;
#X msg 404 203 5;
#X msg 441 203 7;
#X msg 472 205 9;
#X msg 509 209 10;
#X obj 263 233 * 12;
#X obj 360 96 t f f;
#X obj 313 274 +;
#X floatatom 314 309 5 0 0 0 - - -;
#X obj 375 168 sel 0 1 2 3 4 5 6;
#X connect 0 0 4 0;
#X connect 2 0 5 0;
#X connect 3 0 17 0;
#X connect 4 0 14 0;
#X connect 5 0 13 0;
#X connect 6 0 15 1;
#X connect 7 0 15 1;
#X connect 8 0 15 1;
#X connect 9 0 15 1;
#X connect 10 0 15 1;
#X connect 11 0 15 1;
#X connect 12 0 15 1;
#X connect 13 0 15 0;
#X connect 14 0 2 0;
#X connect 14 1 3 0;
#X connect 15 0 16 0;
#X connect 16 0 1 0;
#X connect 17 0 6 0;
#X connect 17 1 7 0;
#X connect 17 2 8 0;
#X connect 17 3 9 0;
#X connect 17 4 10 0;
#X connect 17 5 11 0;
#X connect 17 6 12 0;
