#N canvas 308 235 786 537 10;
#X obj 155 122 vsl 15 70 0 1 0 0 empty empty empty 0 -9 0 10 -262144
-1 -1 5200 1;
#X obj 174 122 vsl 15 70 0 1 0 0 empty empty empty 0 -9 0 10 -262144
-1 -1 4100 1;
#X obj 192 123 vsl 15 70 0 1 0 0 empty empty empty 0 -9 0 10 -262144
-1 -1 4700 1;
#X obj 211 122 vsl 15 70 0 1 0 0 empty empty empty 0 -9 0 10 -262144
-1 -1 4200 1;
#X obj 164 40 vsl 15 70 0 1 0 0 empty empty empty 0 -9 0 10 -262144
-1 -1 1700 1;
#X obj 182 40 vsl 15 70 0 1 0 0 empty empty empty 0 -9 0 10 -262144
-1 -1 4100 1;
#X obj 202 39 vsl 15 70 0 1 0 0 empty empty empty 0 -9 0 10 -262144
-1 -1 4500 1;
#X text 171 10 input;
#X obj 518 230 dac~;
#X obj 648 -93 catch~ mixL;
#X obj 512 -104 catch~ mixR;
#X obj 496 -6 lop~ 5000;
#X obj 650 -3 lop~ 5000;
#X obj 631 146 rev2~ 60 95 4000 50;
#X obj 499 25 clip~ -0.95 0.95;
#X obj 642 70 clip~ -0.95 0.95;
#X obj 636 -60 *~ 0.5;
#X obj 530 -64 *~ 0.5;
#X obj 711 -60 *~ 0.1;
#X obj 470 -69 *~ 0.1;
#X obj 492 344 vosim 3 20 300 0.75;
#X obj 44 349 vosim 12 3 37.5 -0.75;
#X obj 346 346 vosim 6 10 150 0.25;
#X obj 200 348 vosim 10 5 75 -0.25;
#X connect 0 0 21 0;
#X connect 1 0 23 0;
#X connect 2 0 22 0;
#X connect 3 0 20 0;
#X connect 4 0 21 1;
#X connect 5 0 23 1;
#X connect 6 0 20 1;
#X connect 6 0 22 1;
#X connect 9 0 16 0;
#X connect 9 0 18 0;
#X connect 10 0 17 0;
#X connect 10 0 19 0;
#X connect 11 0 14 0;
#X connect 12 0 15 0;
#X connect 13 0 8 0;
#X connect 13 1 8 1;
#X connect 14 0 13 0;
#X connect 14 0 8 0;
#X connect 15 0 13 0;
#X connect 15 0 8 1;
#X connect 16 0 12 0;
#X connect 17 0 11 0;
#X connect 18 0 11 0;
#X connect 19 0 12 0;
