#N canvas 771 272 576 518 10;
#X obj 277 290 dac~;
#N canvas 184 427 661 489 NEAR 0;
#X obj 116 143 vsl 30 100 0 1 0 0 empty empty L 0 -9 0 10 -262144 -66577
-66577 0 1;
#X obj 155 143 vsl 30 100 0 1 0 0 empty empty CL 0 -9 0 10 -262144
-66577 -66577 0 1;
#X obj 194 143 vsl 30 100 0 1 0 0 empty empty CR 0 -9 0 10 -262144
-66577 -66577 0 1;
#N canvas 525 106 641 290 sensor_________in 0;
#X obj 90 248 outlet;
#X obj 217 246 outlet;
#X obj 474 249 outlet;
#X obj 91 90 sel on off;
#X obj 90 176 list prepend color;
#X obj 90 213 list trim;
#X obj 217 87 sel on off;
#X obj 216 173 list prepend color;
#X obj 216 210 list trim;
#X obj 476 90 sel on off;
#X obj 475 176 list prepend color;
#X obj 475 213 list trim;
#X obj 91 59 symbol;
#X obj 216 56 symbol;
#X obj 478 60 symbol;
#X msg 91 117 3 2 2;
#X msg 119 141 0 2 2;
#X msg 215 114 3 2 2;
#X msg 244 138 0 2 2;
#X msg 476 117 3 2 2;
#X msg 504 141 0 2 2;
#X obj 91 18 r inL;
#X obj 474 21 r inR;
#X obj 218 22 r inCL;
#X obj 354 253 outlet;
#X obj 356 94 sel on off;
#X obj 355 180 list prepend color;
#X obj 355 217 list trim;
#X obj 358 64 symbol;
#X msg 356 121 3 2 2;
#X msg 384 145 0 2 2;
#X obj 354 25 r inCR;
#X connect 3 0 15 0;
#X connect 3 1 16 0;
#X connect 4 0 5 0;
#X connect 5 0 0 0;
#X connect 6 0 17 0;
#X connect 6 1 18 0;
#X connect 7 0 8 0;
#X connect 8 0 1 0;
#X connect 9 0 19 0;
#X connect 9 1 20 0;
#X connect 10 0 11 0;
#X connect 11 0 2 0;
#X connect 12 0 3 0;
#X connect 13 0 6 0;
#X connect 14 0 9 0;
#X connect 15 0 4 0;
#X connect 16 0 4 0;
#X connect 17 0 7 0;
#X connect 18 0 7 0;
#X connect 19 0 10 0;
#X connect 20 0 10 0;
#X connect 21 0 12 0;
#X connect 22 0 14 0;
#X connect 23 0 13 0;
#X connect 25 0 29 0;
#X connect 25 1 30 0;
#X connect 26 0 27 0;
#X connect 27 0 24 0;
#X connect 28 0 25 0;
#X connect 29 0 26 0;
#X connect 30 0 26 0;
#X connect 31 0 28 0;
#X restore 116 108 pd sensor_________in;
#X obj 105 -59 inlet;
#X obj 230 144 vsl 30 100 0 1 0 0 empty empty R 0 -9 0 10 -262144 -66577
-66577 0 1;
#X obj 106 -27 unpack 0 0 0 0;
#X obj 255 72 clip 0 1;
#X obj 64 77 clip 0 1;
#X obj 129 73 clip 0 1;
#X obj 193 71 clip 0 1;
#X obj 60 5 - 15;
#X obj 120 10 - 15;
#X obj 168 12 - 15;
#X obj 231 3 - 15;
#X msg 328 29 0;
#X obj 385 6 loadbang;
#X obj 119 294 s left;
#X obj 175 293 s leftmid;
#X obj 245 297 s right;
#X obj 309 299 s rightmid;
#X obj 122 42 / 140;
#X obj 193 45 / 140;
#X obj 254 48 / 140;
#X obj 62 52 / 140;
#X connect 0 0 17 0;
#X connect 1 0 18 0;
#X connect 2 0 19 0;
#X connect 3 0 0 0;
#X connect 3 1 1 0;
#X connect 3 2 2 0;
#X connect 3 3 5 0;
#X connect 4 0 6 0;
#X connect 5 0 20 0;
#X connect 6 0 11 0;
#X connect 6 1 12 0;
#X connect 6 2 13 0;
#X connect 6 3 14 0;
#X connect 7 0 5 0;
#X connect 8 0 0 0;
#X connect 9 0 1 0;
#X connect 10 0 2 0;
#X connect 11 0 24 0;
#X connect 12 0 21 0;
#X connect 13 0 22 0;
#X connect 14 0 23 0;
#X connect 15 0 5 0;
#X connect 15 0 2 0;
#X connect 15 0 1 0;
#X connect 15 0 0 0;
#X connect 16 0 15 0;
#X connect 21 0 9 0;
#X connect 22 0 10 0;
#X connect 23 0 7 0;
#X connect 24 0 8 0;
#X coords 0 -1 1 1 180 180 1 100 100;
#X restore 53 124 pd NEAR;
#X obj 54 98 r near;
#X obj 58 -121 r far;
#N canvas 545 209 635 381 FAR 0;
#X obj 110 142 vsl 30 100 0 1 0 0 empty empty A 0 -9 0 10 -262144 -66577
-66577 0 1;
#X obj 148 143 vsl 30 100 0 1 0 0 empty empty B 0 -9 0 10 -262144 -66577
-66577 0 1;
#X obj 187 143 vsl 30 100 0 1 0 0 empty empty C 0 -9 0 10 -262144 -66577
-66577 0 1;
#X obj 118 -59 inlet;
#X obj 122 -28 unpack 0 0 0 0;
#N canvas 525 106 641 290 sensor___in 0;
#X obj 90 248 outlet;
#X obj 217 246 outlet;
#X obj 356 251 outlet;
#X obj 91 90 sel on off;
#X obj 90 176 list prepend color;
#X obj 90 213 list trim;
#X obj 217 87 sel on off;
#X obj 216 173 list prepend color;
#X obj 216 210 list trim;
#X obj 358 92 sel on off;
#X obj 357 178 list prepend color;
#X obj 357 215 list trim;
#X obj 91 59 symbol;
#X obj 216 56 symbol;
#X obj 360 62 symbol;
#X msg 91 117 3 2 2;
#X msg 119 141 0 2 2;
#X msg 215 114 3 2 2;
#X msg 244 138 0 2 2;
#X msg 358 119 3 2 2;
#X msg 386 143 0 2 2;
#X obj 91 18 r inSA;
#X obj 218 22 r inSB;
#X obj 356 23 r inSC;
#X connect 3 0 15 0;
#X connect 3 1 16 0;
#X connect 4 0 5 0;
#X connect 5 0 0 0;
#X connect 6 0 17 0;
#X connect 6 1 18 0;
#X connect 7 0 8 0;
#X connect 8 0 1 0;
#X connect 9 0 19 0;
#X connect 9 1 20 0;
#X connect 10 0 11 0;
#X connect 11 0 2 0;
#X connect 12 0 3 0;
#X connect 13 0 6 0;
#X connect 14 0 9 0;
#X connect 15 0 4 0;
#X connect 16 0 4 0;
#X connect 17 0 7 0;
#X connect 18 0 7 0;
#X connect 19 0 10 0;
#X connect 20 0 10 0;
#X connect 21 0 12 0;
#X connect 22 0 13 0;
#X connect 23 0 14 0;
#X restore 109 108 pd sensor___in;
#X obj 287 178 outlet;
#X obj 287 124 change;
#X obj 287 151 sel 1;
#X obj 104 71 clip 0 1;
#X obj 162 70 clip 0 1;
#X obj 232 69 clip 0 1;
#X obj 115 0 - 15;
#X obj 154 1 - 15;
#X obj 207 5 - 15;
#X obj 245 7 - 15;
#X floatatom 219 -25 5 0 0 0 - - -;
#X obj 293 65 clip 0 1;
#X obj 287 98 > 0.1;
#X obj 111 36 / 130;
#X obj 162 39 / 130;
#X obj 211 38 / 130;
#X obj 258 39 / 130;
#X obj 143 294 s modB;
#X obj 210 298 s modC;
#X obj 89 293 s modA;
#X connect 0 0 25 0;
#X connect 1 0 23 0;
#X connect 2 0 24 0;
#X connect 3 0 4 0;
#X connect 4 0 12 0;
#X connect 4 1 13 0;
#X connect 4 2 14 0;
#X connect 4 3 15 0;
#X connect 4 3 16 0;
#X connect 5 0 0 0;
#X connect 5 1 1 0;
#X connect 5 2 2 0;
#X connect 7 0 8 0;
#X connect 8 0 6 0;
#X connect 9 0 0 0;
#X connect 10 0 1 0;
#X connect 11 0 2 0;
#X connect 12 0 19 0;
#X connect 13 0 20 0;
#X connect 14 0 21 0;
#X connect 15 0 22 0;
#X connect 17 0 18 0;
#X connect 18 0 7 0;
#X connect 19 0 9 0;
#X connect 20 0 10 0;
#X connect 21 0 11 0;
#X connect 22 0 17 0;
#X coords 0 -1 1 1 130 180 1 100 100;
#X restore 54 -94 pd FAR;
#X obj 311 84 sel 255;
#X obj 315 154 list append;
#X obj 369 123 list prepend;
#X obj 435 91 t l;
#X obj 316 179 list split 4;
#X obj 316 207 s near;
#X obj 351 206 s far;
#N canvas 1226 522 450 300 sound_module 0;
#X obj 51 88 r left;
#X obj 107 87 r leftmid;
#X obj 179 91 r right;
#X obj 243 93 r rightmid;
#X obj 40 145 vosim 12 15 35 -0.75;
#X obj 38 233 vosim 3 50 280 0.75;
#X obj 40 204 vosim 6 30 140 0.25;
#X obj 38 177 vosim 9 20 70 -0.25;
#X connect 0 0 4 0;
#X connect 1 0 7 0;
#X connect 2 0 6 0;
#X connect 3 0 5 0;
#X restore 331 275 pd sound_module;
#N canvas 1403 337 450 300 mix 0;
#X obj 114 3 lop~ 5000;
#X obj 268 6 lop~ 5000;
#X obj 117 34 clip~ -0.95 0.95;
#X obj 272 32 clip~ -0.95 0.95;
#X obj 319 -50 *~ 0.1;
#X obj 100 -57 *~ 0.1;
#X obj 247 -93 catch~ mixR;
#X obj 101 -95 catch~ mixL;
#X obj 135 124 outlet~;
#X obj 221 119 outlet~;
#X obj 148 -55 *~ 1;
#X obj 254 -51 *~ 1;
#X obj 269 69 rev2~ 70 95 4000 50;
#X connect 0 0 2 0;
#X connect 1 0 3 0;
#X connect 2 0 8 0;
#X connect 2 0 12 0;
#X connect 3 0 9 0;
#X connect 3 0 12 0;
#X connect 4 0 0 0;
#X connect 5 0 1 0;
#X connect 6 0 4 0;
#X connect 6 0 11 0;
#X connect 7 0 5 0;
#X connect 7 0 10 0;
#X connect 10 0 0 0;
#X connect 11 0 1 0;
#X connect 12 0 8 0;
#X connect 12 1 9 0;
#X restore 278 266 pd mix;
#X msg 412 -38 close;
#X msg 358 -38 devices;
#X msg 359 -64 open 1;
#X obj 311 35 comport 0 57600;
#X obj 258 -126 loadbang;
#X msg 257 -45 \; pd dsp 1;
#X obj 261 -80 del 1000;
#X connect 2 0 1 0;
#X connect 3 0 4 0;
#X connect 5 0 7 1;
#X connect 5 0 6 0;
#X connect 5 1 7 0;
#X connect 6 0 9 0;
#X connect 7 0 6 1;
#X connect 7 0 8 0;
#X connect 8 0 7 1;
#X connect 9 0 10 0;
#X connect 9 1 11 0;
#X connect 13 0 0 0;
#X connect 13 1 0 1;
#X connect 14 0 17 0;
#X connect 15 0 17 0;
#X connect 16 0 17 0;
#X connect 17 0 5 0;
#X connect 18 0 20 0;
#X connect 20 0 19 0;
