#N canvas 701 111 520 687 10;
#X obj 63 469 cos~;
#X obj 63 504 *~;
#X obj 63 419 *~ 0.5;
#X obj 62 197 phasor~ 10;
#X obj 63 375 *~ 5;
#X obj 63 397 wrap~;
#X obj 139 354 sig~ 1;
#X obj 139 433 -~;
#X obj 63 532 *~;
#X obj 63 443 +~ 0.25;
#X floatatom 279 229 5 0 0 1 number_of_peaks - -, f 5;
#X obj 62 328 /~;
#X obj 63 350 clip~ 0 1;
#X obj 280 198 i \$1;
#X obj 279 154 loadbang;
#X obj 138 307 samphold~;
#X obj 223 294 samphold~;
#X obj 154 410 *~;
#X obj 132 188 sig~ 1;
#X obj 140 217 -~;
#X obj 155 158 clip~ 0 1;
#X obj 64 566 clip~ -1 1;
#X obj 151 132 r~ duty;
#X obj 64 23 inlet;
#X floatatom 62 121 5 0 0 0 - - -, f 5;
#X obj 63 139 pack 0 10;
#X obj 63 162 line~;
#X obj 62 76 * \$2;
#X obj 62 96 + \$3;
#X obj 125 593 *~;
#X obj 150 545 *;
#X obj 148 515 t f f;
#X obj 172 599 line~;
#X obj 122 626 pan2~;
#X obj 128 657 throw~ mixL;
#X obj 210 658 throw~ mixR;
#X obj 268 588 f \$4;
#X obj 259 554 loadbang;
#X obj 6 239 r~ vib;
#X obj 160 76 t b f;
#X obj 160 107 f 1;
#X obj 216 127 -;
#X obj 175 578 pack 0 80;
#X connect 0 0 1 0;
#X connect 0 0 1 1;
#X connect 1 0 8 0;
#X connect 2 0 9 0;
#X connect 3 0 11 0;
#X connect 3 0 15 1;
#X connect 3 0 16 1;
#X connect 4 0 5 0;
#X connect 5 0 2 0;
#X connect 6 0 7 0;
#X connect 7 0 8 1;
#X connect 8 0 21 0;
#X connect 9 0 0 0;
#X connect 10 0 4 1;
#X connect 11 0 12 0;
#X connect 12 0 4 0;
#X connect 12 0 17 0;
#X connect 13 0 10 0;
#X connect 14 0 13 0;
#X connect 15 0 11 1;
#X connect 16 0 17 1;
#X connect 17 0 7 1;
#X connect 18 0 19 0;
#X connect 19 0 15 0;
#X connect 20 0 19 1;
#X connect 21 0 29 0;
#X connect 22 0 20 0;
#X connect 23 0 27 0;
#X connect 23 0 31 0;
#X connect 23 0 39 0;
#X connect 24 0 25 0;
#X connect 25 0 26 0;
#X connect 26 0 3 0;
#X connect 27 0 28 0;
#X connect 28 0 24 0;
#X connect 29 0 33 0;
#X connect 30 0 42 0;
#X connect 31 0 30 0;
#X connect 31 1 30 1;
#X connect 32 0 29 1;
#X connect 33 0 34 0;
#X connect 33 1 35 0;
#X connect 36 0 33 1;
#X connect 37 0 36 0;
#X connect 38 0 3 0;
#X connect 39 0 40 0;
#X connect 39 1 41 1;
#X connect 40 0 41 0;
#X connect 41 0 16 0;
#X connect 42 0 32 0;
