#N canvas 689 135 520 687 10;
#X obj 63 469 cos~;
#X obj 63 419 *~ 0.5;
#X obj 62 197 phasor~ 10;
#X obj 63 375 *~ 5;
#X obj 63 397 wrap~;
#X obj 139 354 sig~ 1;
#X obj 139 433 -~;
#X obj 70 528 *~;
#X floatatom 279 229 5 0 0 1 number_of_peaks - -;
#X obj 62 328 /~;
#X obj 63 350 clip~ 0 1;
#X obj 280 198 i \$1;
#X obj 279 154 loadbang;
#X obj 138 307 samphold~;
#X obj 223 294 samphold~;
#X obj 165 405 *~;
#X obj 132 188 sig~ 1;
#X obj 140 217 -~;
#X obj 186 219 clip~ 0 1;
#X obj 64 566 clip~ -1 1;
#X obj 64 23 inlet;
#X floatatom 62 121 5 0 0 0 - - -;
#X obj 63 162 line~;
#X obj 62 76 * \$2;
#X obj 62 96 + \$3;
#X obj 125 593 *~;
#X obj 264 480 *;
#X obj 262 450 t f f;
#X obj 172 599 line~;
#X obj 122 626 pan2~;
#X obj 128 657 throw~ mixL;
#X obj 210 658 throw~ mixR;
#X obj 268 588 f \$4;
#X obj 259 554 loadbang;
#X obj 160 76 t b f;
#X obj 160 107 f 1;
#X obj 216 127 -;
#X obj 68 551 -~ 0.5;
#X obj 61 139 pack 0 100;
#X obj 353 166 line~;
#X obj 352 63 r modB;
#X obj 355 114 + 0.08;
#X obj -62 5 r modA;
#X obj -70 148 osc~;
#X obj -85 79 pack 0 100;
#X obj -34 175 *~;
#X obj -4 158 line~;
#X obj 9 30 f \$3;
#X obj 2 -11 loadbang;
#X obj -10 117 pack 0 100;
#X obj 3 92 * 30;
#X obj -78 116 line~;
#X obj 8 56 / 5;
#X obj -82 59 * 300;
#X obj 65 501 pow~;
#X obj 190 428 r modC;
#X obj 152 558 line~ 2;
#X obj 63 443 +~ 0.75;
#X obj 160 512 + 2;
#X obj 169 484 * 15;
#X obj 190 456 *;
#X obj 217 509 pack 0 10;
#X obj 355 141 pack 0 100;
#X obj 158 535 pack 0 100;
#X obj 351 86 * 0.8;
#X connect 0 0 54 0;
#X connect 1 0 57 0;
#X connect 2 0 9 0;
#X connect 2 0 13 1;
#X connect 2 0 14 1;
#X connect 3 0 4 0;
#X connect 4 0 1 0;
#X connect 5 0 6 0;
#X connect 6 0 7 1;
#X connect 7 0 37 0;
#X connect 8 0 3 1;
#X connect 9 0 10 0;
#X connect 10 0 3 0;
#X connect 10 0 15 0;
#X connect 11 0 8 0;
#X connect 12 0 11 0;
#X connect 13 0 9 1;
#X connect 14 0 15 1;
#X connect 15 0 6 1;
#X connect 16 0 17 0;
#X connect 17 0 13 0;
#X connect 18 0 17 1;
#X connect 19 0 25 0;
#X connect 20 0 23 0;
#X connect 20 0 27 0;
#X connect 20 0 34 0;
#X connect 21 0 38 0;
#X connect 22 0 2 0;
#X connect 23 0 24 0;
#X connect 24 0 21 0;
#X connect 25 0 29 0;
#X connect 26 0 61 0;
#X connect 27 0 26 0;
#X connect 27 1 26 1;
#X connect 28 0 25 1;
#X connect 29 0 30 0;
#X connect 29 1 31 0;
#X connect 32 0 29 1;
#X connect 33 0 32 0;
#X connect 34 0 35 0;
#X connect 34 1 36 1;
#X connect 35 0 36 0;
#X connect 36 0 14 0;
#X connect 37 0 19 0;
#X connect 38 0 22 0;
#X connect 39 0 18 0;
#X connect 40 0 64 0;
#X connect 41 0 62 0;
#X connect 42 0 50 0;
#X connect 42 0 53 0;
#X connect 43 0 45 0;
#X connect 44 0 51 0;
#X connect 45 0 2 0;
#X connect 46 0 45 1;
#X connect 47 0 52 0;
#X connect 48 0 47 0;
#X connect 49 0 46 0;
#X connect 50 0 49 0;
#X connect 51 0 43 0;
#X connect 52 0 50 1;
#X connect 53 0 44 0;
#X connect 54 0 7 0;
#X connect 55 0 60 1;
#X connect 55 0 60 0;
#X connect 56 0 54 1;
#X connect 57 0 0 0;
#X connect 58 0 63 0;
#X connect 59 0 58 0;
#X connect 60 0 59 0;
#X connect 61 0 28 0;
#X connect 62 0 39 0;
#X connect 63 0 56 0;
#X connect 64 0 41 0;
