#N canvas 687 139 563 738 10;
#X obj 63 469 cos~;
#X obj 63 419 *~ 0.5;
#X obj 27 225 phasor~ 10;
#X obj 63 375 *~ 5;
#X obj 63 397 wrap~;
#X obj 139 354 sig~ 1;
#X obj 139 433 -~;
#X obj 70 528 *~;
#X floatatom 279 229 5 0 0 1 number_of_peaks - -;
#X obj 62 328 /~;
#X obj 63 350 clip~ 0 1;
#X obj 280 198 i \$1;
#X obj 279 154 loadbang;
#X obj 138 307 samphold~;
#X obj 223 294 samphold~;
#X obj 165 405 *~;
#X obj 132 188 sig~ 1;
#X obj 140 217 -~;
#X obj 186 219 clip~ 0 1;
#X obj 49 615 clip~ -1 1;
#X obj 81 3 inlet;
#X floatatom 53 129 5 0 0 0 - - -;
#X obj 45 176 line~;
#X obj 90 651 *~;
#X obj 264 480 *;
#X obj 262 450 t f f;
#X obj 170 640 line~;
#X obj 109 672 pan2~;
#X obj 115 703 throw~ mixL;
#X obj 197 704 throw~ mixR;
#X obj 323 563 loadbang;
#X obj 160 76 t b f;
#X obj 160 107 f 1;
#X obj 216 127 -;
#X obj 54 152 pack 0 100;
#X obj 353 166 line~;
#X obj 352 63 r modB;
#X obj 355 114 + 0.08;
#X obj -143 6 r modA;
#X obj -151 149 osc~;
#X obj -166 80 pack 0 100;
#X obj -115 176 *~;
#X obj -85 159 line~;
#X obj -91 118 pack 0 100;
#X obj -159 117 line~;
#X obj 65 501 pow~;
#X obj 190 428 r modC;
#X obj 159 566 line~ 2;
#X obj 63 443 +~ 0.75;
#X obj 160 512 + 2;
#X obj 169 484 * 15;
#X obj 190 456 *;
#X obj 250 511 pack 0 10;
#X obj 355 141 pack 0 100;
#X obj 158 535 pack 0 100;
#X obj 249 -7 inlet;
#X obj 254 83 mode;
#X obj 260 112 mtof;
#X obj 257 125 * 0.5;
#X obj 49 49 *;
#X obj 55 101 +;
#X obj 303 16 random 7;
#X obj 257 54 + \$2;
#X obj 289 645 f \$3;
#X obj -164 60 * 100;
#X obj -76 93 *;
#X obj -99 39 *;
#X obj -59 28 / 4;
#X obj 350 433 change;
#X obj 349 402 > 0.001;
#X obj 352 459 sel 1;
#X obj 351 86 * 0.7;
#X obj 125 592 samphold~;
#X obj -58 280 clip~ 1 100000;
#X connect 0 0 45 0;
#X connect 1 0 48 0;
#X connect 2 0 9 0;
#X connect 2 0 13 1;
#X connect 2 0 14 1;
#X connect 2 0 72 1;
#X connect 3 0 4 0;
#X connect 4 0 1 0;
#X connect 5 0 6 0;
#X connect 6 0 7 1;
#X connect 7 0 19 0;
#X connect 8 0 3 1;
#X connect 9 0 10 0;
#X connect 10 0 3 0;
#X connect 10 0 15 0;
#X connect 11 0 8 0;
#X connect 12 0 11 0;
#X connect 13 0 9 1;
#X connect 14 0 15 1;
#X connect 15 0 6 1;
#X connect 16 0 17 0;
#X connect 17 0 13 0;
#X connect 18 0 17 1;
#X connect 19 0 23 0;
#X connect 20 0 25 0;
#X connect 20 0 31 0;
#X connect 20 0 59 0;
#X connect 20 0 69 0;
#X connect 21 0 34 0;
#X connect 22 0 73 0;
#X connect 23 0 27 0;
#X connect 24 0 52 0;
#X connect 25 0 24 0;
#X connect 25 1 24 1;
#X connect 26 0 23 1;
#X connect 27 0 28 0;
#X connect 27 1 29 0;
#X connect 30 0 63 0;
#X connect 31 0 32 0;
#X connect 31 1 33 1;
#X connect 32 0 33 0;
#X connect 33 0 14 0;
#X connect 34 0 22 0;
#X connect 35 0 18 0;
#X connect 36 0 71 0;
#X connect 37 0 53 0;
#X connect 38 0 66 1;
#X connect 38 0 66 0;
#X connect 38 0 64 0;
#X connect 39 0 41 0;
#X connect 40 0 44 0;
#X connect 41 0 73 0;
#X connect 42 0 41 1;
#X connect 43 0 42 0;
#X connect 44 0 39 0;
#X connect 45 0 7 0;
#X connect 46 0 51 1;
#X connect 46 0 51 0;
#X connect 47 0 72 0;
#X connect 48 0 0 0;
#X connect 49 0 54 0;
#X connect 50 0 49 0;
#X connect 51 0 50 0;
#X connect 52 0 26 0;
#X connect 53 0 35 0;
#X connect 54 0 47 0;
#X connect 55 0 61 0;
#X connect 56 0 57 0;
#X connect 57 0 58 0;
#X connect 57 0 60 1;
#X connect 57 0 67 0;
#X connect 58 0 59 1;
#X connect 59 0 60 0;
#X connect 60 0 21 0;
#X connect 61 0 62 0;
#X connect 62 0 56 0;
#X connect 63 0 27 1;
#X connect 64 0 40 0;
#X connect 65 0 43 0;
#X connect 66 0 65 0;
#X connect 67 0 65 1;
#X connect 68 0 70 0;
#X connect 69 0 68 0;
#X connect 70 0 61 0;
#X connect 71 0 37 0;
#X connect 72 0 45 1;
#X connect 73 0 2 0;
